<?xml version="1.0" encoding="UTF-8"?>
<svg id="Layer_1" xmlns="http://www.w3.org/2000/svg" version="1.1" xmlns:xlink="http://www.w3.org/1999/xlink" viewBox="0 0 800 800">
  <!-- Generator: Adobe Illustrator 29.3.0, SVG Export Plug-In . SVG Version: 2.1.0 Build 146)  -->
  <defs>
    <style>
      .st0 {
        fill: #90bc42;
      }

      .st1 {
        fill: #f4d13b;
      }

      .st2 {
        fill: #9ad14b;
      }

      .st3 {
        fill: #f7b239;
      }

      .st4 {
        fill: #333;
      }
    </style>
  </defs>
  <path class="st2" d="M553.8,585.7c57.7,0,104.5,28.6,104.5,64s-46.8,63.9-104.5,63.9-104.5-28.6-104.5-63.9,46.8-63.9,104.5-63.9Z"/>
  <g>
    <path class="st3" d="M246.2,585.7c57.7,0,104.5,28.6,104.5,64s-46.8,63.9-104.5,63.9-104.5-28.6-104.5-63.9,46.8-63.9,104.5-63.9Z"/>
    <path class="st3" d="M553.8,410.2c57.7,0,104.5,28.6,104.5,63.9s-46.8,64-104.5,64-104.5-28.6-104.5-64,46.8-63.9,104.5-63.9Z"/>
  </g>
  <path class="st2" d="M246.2,410.2c57.7,0,104.5,28.6,104.5,63.9s-46.8,64-104.5,64-104.5-28.6-104.5-64,46.8-63.9,104.5-63.9Z"/>
  <path class="st1" d="M273.2,226.1c52.4,24.3,82.7,70,67.8,102s-69.4,38.2-121.7,13.9-82.7-70-67.8-102,69.4-38.2,121.7-13.9Z"/>
  <path class="st0" d="M648.5,240c14.9,32-15.5,77.7-67.8,102-52.3,24.3-106.8,18.1-121.7-13.9s15.5-77.7,67.8-102c52.3-24.3,106.8-18.1,121.7,13.9Z"/>
  <path class="st2" d="M400,13.9c35.3,0,63.9,46.8,63.9,104.5s-28.6,104.5-63.9,104.5-64-46.8-64-104.5,28.6-104.5,64-104.5Z"/>
  <path class="st4" d="M553.8,571.8c-59.2,0-106.9,27.1-116.6,63.9h-23.2v-147.6h23.2c9.7,36.8,57.4,63.9,116.6,63.9s118.5-34.2,118.5-77.9-52-77.9-118.5-77.9-106.9,27.1-116.6,63.9h-23.2v-118.2h37.1c10.7,15.4,29.2,25.3,53.2,28,4.5.5,9.1.8,13.8.8,22,0,45.8-5.6,68.6-16.2,60.2-28,93-81,74.6-120.6-9.3-20.1-29.9-32.9-57.9-36.1-25.5-2.9-54.8,2.6-82.4,15.4-50.6,23.5-81.8,64.7-79.6,100.7h-27.4v-79.1c36.8-9.7,63.9-57.4,63.9-116.6C477.9,52,443.7,0,400,0s-77.9,52-77.9,118.5,27.1,106.9,63.9,116.6v79.1h-27.4c2.3-36-28.9-77.2-79.6-100.8-27.6-12.8-56.9-18.3-82.4-15.4-28,3.2-48.6,16-57.9,36.1-18.4,39.6,14.3,92.6,74.6,120.6,22.8,10.6,46.6,16.2,68.6,16.2s9.3-.3,13.8-.8c24-2.7,42.6-12.6,53.2-28h37.1v118.2h-23.2c-9.7-36.8-57.4-63.9-116.6-63.9s-118.5,34.2-118.5,77.9,52,77.9,118.5,77.9,106.9-27.1,116.6-63.9h23.2v147.6h-23.2c-9.7-36.8-57.4-63.9-116.6-63.9s-118.5,34.2-118.5,77.9,52,77.9,118.5,77.9,106.9-27.1,116.6-63.9h23.2v122.5c0,7.7,6.2,13.9,13.9,13.9h0c7.7,0,13.9-6.2,13.9-13.9v-122.5h23.2c9.7,36.8,57.4,63.9,116.6,63.9s118.5-34.2,118.5-77.9-52-77.9-118.5-77.9ZM553.8,424.2c49.1,0,90.6,22.9,90.6,50s-41.5,50-90.6,50-90.6-22.9-90.6-50c0-27.1,41.5-50,90.6-50ZM532.7,238.7c19.1-8.9,38.9-13.6,56.7-13.6s7.3.2,10.7.6c10.4,1.2,28.9,5.4,35.8,20.1,11.4,24.6-16.5,62.8-61,83.5-23,10.7-47,15.3-67.5,13-10.4-1.2-28.9-5.4-35.8-20.1-11.4-24.6,16.5-62.8,61.1-83.5ZM350,118.5c0-49.1,22.9-90.6,50-90.6s50,41.5,50,90.6-22.9,90.6-50,90.6-50-41.5-50-90.6ZM328.4,322.2c-6.9,14.7-25.3,18.9-35.8,20.1-20.5,2.3-44.4-2.3-67.5-13-44.5-20.7-72.5-59-61-83.5,6.9-14.7,25.3-18.9,35.8-20.1,3.5-.4,7.1-.6,10.7-.6,17.9,0,37.6,4.7,56.7,13.6,44.5,20.7,72.5,59,61,83.5ZM246.2,524.2c-49.1,0-90.6-22.9-90.6-50s41.5-50,90.6-50,90.6,22.9,90.6,50-41.5,50-90.6,50ZM246.2,699.6c-49.1,0-90.6-22.9-90.6-50s41.5-50,90.6-50,90.6,22.9,90.6,50-41.5,50-90.6,50ZM553.8,699.6c-49.1,0-90.6-22.9-90.6-50s41.5-50,90.6-50,90.6,22.9,90.6,50-41.5,50-90.6,50Z"/>
</svg>